<svg viewBox="0 0 200 200" xmlns="http://www.w3.org/2000/svg" style="background-color: #000;">
    <!-- Gridlines -->
    <g stroke="#0f0" stroke-width="0.5">
        <line x1="50" y1="0" x2="50" y2="200" />
        <line x1="100" y1="0" x2="100" y2="200" />
        <line x1="150" y1="0" x2="150" y2="200" />
        <line x1="0" y1="50" x2="200" y2="50" />
        <line x1="0" y1="100" x2="200" y2="100" />
        <line x1="0" y1="150" x2="200" y2="150" />
    </g>

    <!-- Circuitry -->
    <g fill="#0f0">
        <rect x="10" y="10" width="30" height="30" rx="5" ry="5" />
        <rect x="10" y="60" width="30" height="30" rx="5" ry="5" />
        <rect x="10" y="110" width="30" height="30" rx="5" ry="5" />
        <rect x="10" y="160" width="30" height="30" rx="5" ry="5" />

        <rect x="160" y="10" width="30" height="30" rx="5" ry="5" />
        <rect x="160" y="60" width="30" height="30" rx="5" ry="5" />
        <rect x="160" y="110" width="30" height="30" rx="5" ry="5" />
        <rect x="160" y="160" width="30" height="30" rx="5" ry="5" />

        <rect x="60" y="10" width="30" height="30" rx="5" ry="5" />
        <rect x="110" y="10" width="30" height="30" rx="5" ry="5" />
        <rect x="60" y="160" width="30" height="30" rx="5" ry="5" />
        <rect x="110" y="160" width="30" height="30" rx="5" ry="5" />

        <rect x="85" y="45" width="20" height="20" rx="5" ry="5" />
        <rect x="85" y="105" width="20" height="20" rx="5" ry="5" />
        <rect x="45" y="85" width="20" height="20" rx="5" ry="5" />
        <rect x="115" y="85" width="20" height="20" rx="5" ry="5" />

        <rect x="35" y="35" width="20" height="20" rx="5" ry="5" />
        <rect x="135" y="135" width="20" height="20" rx="5" ry="5" />
    </g>
</svg>
